<?xml version="1.0" encoding="UTF-8" standalone="no"?>
<!DOCTYPE svg PUBLIC "-//W3C//DTD SVG 1.1//EN" "http://www.w3.org/Graphics/SVG/1.1/DTD/svg11.dtd">
<svg width="100%" height="100%" viewBox="0 0 335 77" version="1.1" xmlns="http://www.w3.org/2000/svg" xmlns:xlink="http://www.w3.org/1999/xlink" xml:space="preserve" xmlns:serif="http://www.serif.com/" style="fill-rule:evenodd;clip-rule:evenodd;stroke-linejoin:round;stroke-miterlimit:2;">
    <g id="_4444_1" serif:id="4444_1" transform="matrix(1,0,0,1,-2.38329e-05,-2.89543e-06)">
        <path d="M48.362,16.373L48.362,19.022C52.901,16.373 57.361,13.594 61.718,10.653C57.205,12.419 52.757,14.348 48.362,16.373Z" style="fill:rgb(227,193,145);fill-rule:nonzero;"/>
        <path d="M17.823,35.106C19.064,35.912 20.317,36.697 21.577,37.476C21.583,39.508 21.602,41.541 21.655,43.573C21.843,50.592 22.2,57.605 23.194,64.572C24.181,57.605 24.538,50.592 24.733,43.573C24.798,40.937 24.817,38.294 24.817,35.658C22.506,34.249 20.175,32.866 17.824,31.521L17.824,35.106L17.823,35.106Z" style="fill:rgb(227,193,145);fill-rule:nonzero;"/>
        <path d="M48.362,31.568C52.258,29.009 56.069,26.321 59.692,23.373C55.809,24.906 52.076,26.717 48.362,28.6L48.362,31.568Z" style="fill:rgb(227,193,145);fill-rule:nonzero;"/>
        <path d="M46.719,17.139C46.614,14.47 46.472,11.808 46.29,9.146C46.102,11.944 45.952,14.743 45.848,17.548C41.004,19.847 36.212,22.256 31.446,24.723C31.443,24.725 31.439,24.727 31.436,24.728C31.334,16.484 31.148,8.24 30.859,0C30.57,8.24 30.384,16.484 30.282,24.728C30.278,24.727 30.275,24.725 30.271,24.723C28.141,23.612 26.011,22.515 23.862,21.443C21.855,20.45 19.842,19.456 17.823,18.489L17.823,21.593C21.913,23.93 26.063,26.164 30.231,28.359C30.232,28.359 30.233,28.359 30.234,28.36C30.091,44.242 30.297,60.126 30.858,76C31.42,60.129 31.626,44.246 31.483,28.366L31.484,28.365L31.614,28.294C36.361,25.781 41.081,23.216 45.743,20.528C45.652,23.69 45.613,26.859 45.626,30.021C42.243,31.813 38.912,33.703 35.614,35.644L35.614,36.573C35.659,45.923 35.957,55.293 37.237,64.572C38.477,55.599 38.802,46.541 38.853,37.495C40.457,36.547 42.048,35.587 43.632,34.6C44.308,34.177 44.976,33.749 45.652,33.32C45.723,38.599 45.931,43.872 46.288,49.144C46.665,43.599 46.879,38.047 46.937,32.496C46.95,31.437 46.956,30.379 46.956,29.32C46.956,26.19 46.911,23.055 46.813,19.925C46.79,18.996 46.757,18.068 46.719,17.139Z" style="fill:rgb(227,193,145);fill-rule:nonzero;"/>
        <path d="M15.869,17.555C15.765,14.75 15.616,11.945 15.428,9.147C15.246,11.809 15.103,14.471 14.999,17.14C10.071,14.822 5.091,12.621 0,10.653C4.818,13.945 9.805,16.952 14.843,19.874C14.863,19.887 14.882,19.899 14.902,19.906C14.798,23.205 14.752,26.503 14.765,29.802C10.493,27.451 6.129,25.263 1.623,23.373C5.805,26.906 10.233,30.107 14.785,33.133C14.856,38.477 15.07,43.814 15.427,49.145C15.765,44.087 15.979,39.029 16.057,33.964C16.083,32.821 16.096,31.685 16.096,30.542C16.115,27.204 16.07,23.867 15.972,20.529C15.947,19.536 15.915,18.549 15.869,17.555Z" style="fill:rgb(227,193,145);fill-rule:nonzero;"/>
    </g>
    <g transform="matrix(1,0,0,1,67.5884,23.865)">
        <g>
            <path d="M4.26,3.41C3.173,3.41 2.27,3.62 1.55,4.04C0.837,4.453 0.32,4.983 -0,5.63L0.52,1.93L18.06,1.93L18.57,5.63C18.25,4.983 17.733,4.453 17.02,4.04C16.307,3.62 15.407,3.41 14.32,3.41L10.62,3.41L10.62,23.94C10.62,24.927 10.743,25.68 10.99,26.2C11.237,26.72 11.507,27.063 11.8,27.23C12.1,27.403 12.25,27.453 12.25,27.38L6.36,27.38C6.36,27.453 6.51,27.403 6.81,27.23C7.103,27.063 7.367,26.727 7.6,26.22C7.84,25.713 7.96,24.953 7.96,23.94L7.96,3.41L4.26,3.41ZM28.05,27.83C26.717,27.83 25.57,27.503 24.61,26.85C23.643,26.197 22.907,25.343 22.4,24.29C21.9,23.243 21.65,22.127 21.65,20.94C21.65,19.413 21.95,18.097 22.55,16.99C23.157,15.877 23.94,15.037 24.9,14.47C25.867,13.903 26.867,13.62 27.9,13.62C29.38,13.62 30.657,14.157 31.73,15.23C32.803,16.303 33.39,17.79 33.49,19.69L23.87,19.69C23.87,20.87 24.09,21.91 24.53,22.81C24.977,23.71 25.577,24.403 26.33,24.89C27.083,25.37 27.903,25.61 28.79,25.61C31.103,25.61 32.67,24.87 33.49,23.39C33.263,24.717 32.657,25.79 31.67,26.61C30.683,27.423 29.477,27.83 28.05,27.83ZM27.64,14.84C26.68,14.84 25.853,15.18 25.16,15.86C24.473,16.533 24.053,17.413 23.9,18.5L30.64,18.5C30.64,17.367 30.337,16.473 29.73,15.82C29.123,15.167 28.427,14.84 27.64,14.84ZM46.33,27.83C44.997,27.83 43.83,27.507 42.83,26.86C41.83,26.22 41.07,25.37 40.55,24.31C40.037,23.25 39.78,22.127 39.78,20.94C39.78,19.707 40.043,18.53 40.57,17.41C41.103,16.29 41.873,15.377 42.88,14.67C43.893,13.97 45.09,13.62 46.47,13.62C48.123,13.62 49.32,13.977 50.06,14.69C50.8,15.41 51.32,16.163 51.62,16.95L49.17,18.13C49.023,17.243 48.66,16.493 48.08,15.88C47.5,15.26 46.79,14.95 45.95,14.95C44.743,14.95 43.807,15.42 43.14,16.36C42.473,17.293 42.14,18.44 42.14,19.8C42.14,20.76 42.357,21.69 42.79,22.59C43.223,23.49 43.84,24.223 44.64,24.79C45.44,25.357 46.383,25.64 47.47,25.64C48.357,25.64 49.203,25.437 50.01,25.03C50.81,24.623 51.443,24.077 51.91,23.39C51.637,24.77 50.997,25.853 49.99,26.64C48.977,27.433 47.757,27.83 46.33,27.83ZM61.75,15.8C62.297,15.16 62.963,14.637 63.75,14.23C64.543,13.823 65.37,13.62 66.23,13.62C67.563,13.62 68.63,14.047 69.43,14.9C70.23,15.747 70.63,16.973 70.63,18.58L70.63,23.72C70.63,24.753 70.743,25.543 70.97,26.09C71.19,26.63 71.437,27 71.71,27.2C71.977,27.393 72.11,27.453 72.11,27.38L66.79,27.38C66.79,27.453 66.923,27.4 67.19,27.22C67.463,27.033 67.71,26.667 67.93,26.12C68.157,25.58 68.27,24.767 68.27,23.68L68.27,19.46C68.27,18.627 68.157,17.963 67.93,17.47C67.71,16.977 67.413,16.57 67.04,16.25C66.473,15.777 65.797,15.54 65.01,15.54C64.123,15.54 63.36,15.83 62.72,16.41C62.073,16.99 61.75,17.8 61.75,18.84L61.75,23.68C61.75,24.74 61.863,25.543 62.09,26.09C62.31,26.63 62.563,27 62.85,27.2C63.13,27.393 63.27,27.453 63.27,27.38L57.94,27.38C57.94,27.453 58.077,27.4 58.35,27.22C58.623,27.033 58.863,26.663 59.07,26.11C59.283,25.55 59.39,24.74 59.39,23.68L59.39,4.63C59.39,3.59 59.223,2.88 58.89,2.5C58.557,2.12 58.18,1.93 57.76,1.93L57.54,1.93L61.75,0L61.75,15.8ZM109.48,3.89C109.48,3.397 109.347,2.97 109.08,2.61C108.807,2.25 108.387,2.023 107.82,1.93L114.03,1.93C113.71,1.977 113.28,2.26 112.74,2.78C112.2,3.293 111.633,4.253 111.04,5.66L101.68,28.27L92.17,5.55C91.623,4.243 91.087,3.337 90.56,2.83C90.027,2.323 89.587,2.023 89.24,1.93L95.42,1.93C94.753,2.103 94.42,2.533 94.42,3.22C94.42,3.593 94.507,3.99 94.68,4.41C94.853,4.823 94.953,5.07 94.98,5.15L102.16,22.72L109.11,5.63C109.357,5.063 109.48,4.483 109.48,3.89ZM119.25,18.1C119.25,17.06 119.083,16.35 118.75,15.97C118.417,15.583 118.04,15.39 117.62,15.39L121.62,13.62L121.62,23.68C121.62,24.767 121.73,25.58 121.95,26.12C122.177,26.667 122.423,27.033 122.69,27.22C122.963,27.4 123.1,27.453 123.1,27.38L117.77,27.38C117.77,27.453 117.907,27.4 118.18,27.22C118.453,27.033 118.7,26.667 118.92,26.12C119.14,25.58 119.25,24.767 119.25,23.68L119.25,18.1ZM120.4,9.14C119.853,9.14 119.427,8.963 119.12,8.61C118.813,8.25 118.66,7.837 118.66,7.37C118.66,6.897 118.813,6.483 119.12,6.13C119.427,5.77 119.853,5.59 120.4,5.59C120.94,5.59 121.367,5.77 121.68,6.13C121.987,6.483 122.14,6.897 122.14,7.37C122.14,7.837 121.987,8.25 121.68,8.61C121.367,8.963 120.94,9.14 120.4,9.14ZM133.24,16.99C133.607,16.197 134.217,15.437 135.07,14.71C135.923,13.983 136.78,13.62 137.64,13.62C138.18,13.62 138.587,13.693 138.86,13.84L138.86,16.87C138.32,16.21 137.557,15.88 136.57,15.88C135.53,15.88 134.717,16.33 134.13,17.23C133.537,18.13 133.24,19.283 133.24,20.69L133.24,23.68C133.24,25.06 133.4,26.01 133.72,26.53C134.04,27.05 134.347,27.333 134.64,27.38L129.43,27.38C129.723,27.333 130.037,27.057 130.37,26.55C130.703,26.043 130.87,25.087 130.87,23.68L130.87,18.1C130.87,17.06 130.703,16.35 130.37,15.97C130.037,15.583 129.66,15.39 129.24,15.39L133.24,13.62L133.24,16.99ZM149.7,27.83C148.493,27.83 147.583,27.417 146.97,26.59C146.35,25.763 146.04,24.77 146.04,23.61L146.04,15.39L143.97,15.39L148.41,10.36L148.41,13.91L153.14,13.91L153.14,15.39L148.41,15.39L148.41,23.2C148.41,24.14 148.657,24.85 149.15,25.33C149.643,25.81 150.21,26.05 150.85,26.05C151.343,26.05 151.823,25.903 152.29,25.61C152.763,25.31 153.147,24.903 153.44,24.39C153.073,26.683 151.827,27.83 149.7,27.83ZM169.5,25.24C168.267,26.967 166.75,27.83 164.95,27.83C163.69,27.83 162.653,27.417 161.84,26.59C161.027,25.763 160.62,24.497 160.62,22.79L160.62,17.54C160.62,16.527 160.467,15.75 160.16,15.21C159.847,14.67 159.493,14.3 159.1,14.1C158.707,13.9 158.51,13.837 158.51,13.91L162.99,13.91L162.99,22.24C162.99,23.4 163.303,24.287 163.93,24.9C164.557,25.52 165.303,25.83 166.17,25.83C167.03,25.83 167.8,25.54 168.48,24.96C169.16,24.38 169.5,23.62 169.5,22.68L169.5,17.28C169.5,16.32 169.377,15.593 169.13,15.1C168.883,14.607 168.6,14.273 168.28,14.1C167.96,13.927 167.8,13.863 167.8,13.91L171.87,13.91L171.87,23.2C171.87,24.24 172.037,24.95 172.37,25.33C172.703,25.71 173.077,25.9 173.49,25.9L173.72,25.9L169.5,27.83L169.5,25.24ZM190.77,27.83C189.983,27.803 189.32,27.593 188.78,27.2C188.233,26.807 187.923,26.35 187.85,25.83C187.403,26.47 186.817,26.963 186.09,27.31C185.363,27.657 184.643,27.83 183.93,27.83C182.797,27.83 181.847,27.503 181.08,26.85C180.313,26.197 179.93,25.337 179.93,24.27C179.93,21.537 182.497,20.17 187.63,20.17L187.63,19.76C187.63,18.407 187.433,17.407 187.04,16.76C186.493,15.847 185.603,15.39 184.37,15.39C183.41,15.39 182.617,15.677 181.99,16.25C181.357,16.817 181.04,17.557 181.04,18.47C180.893,18.223 180.777,18 180.69,17.8C180.603,17.6 180.56,17.33 180.56,16.99C180.56,16.097 180.98,15.313 181.82,14.64C182.66,13.96 183.757,13.62 185.11,13.62C187.037,13.62 188.407,14.26 189.22,15.54C189.493,15.94 189.69,16.433 189.81,17.02C189.937,17.613 190,18.39 190,19.35L190,23.76C190,24.52 190.213,25.11 190.64,25.53C191.073,25.95 191.687,26.16 192.48,26.16L192.96,26.16L190.77,27.83ZM187.63,21.28C185.657,21.28 184.323,21.527 183.63,22.02C182.943,22.513 182.6,23.18 182.6,24.02C182.6,24.707 182.783,25.247 183.15,25.64C183.523,26.04 184.017,26.24 184.63,26.24C185.097,26.24 185.54,26.127 185.96,25.9C186.38,25.68 186.74,25.373 187.04,24.98C187.433,24.46 187.63,23.757 187.63,22.87L187.63,21.28ZM199.25,4.63C199.25,3.59 199.083,2.88 198.75,2.5C198.417,2.12 198.04,1.93 197.62,1.93L197.4,1.93L201.61,0L201.61,23.68C201.61,24.767 201.723,25.58 201.95,26.12C202.17,26.667 202.417,27.033 202.69,27.22C202.957,27.4 203.09,27.453 203.09,27.38L197.77,27.38C197.77,27.453 197.903,27.4 198.17,27.22C198.443,27.033 198.69,26.663 198.91,26.11C199.137,25.55 199.25,24.74 199.25,23.68L199.25,4.63ZM230.55,12.95C232.45,13.423 233.9,14.293 234.9,15.56C235.893,16.833 236.39,18.257 236.39,19.83C236.39,21.237 236.063,22.553 235.41,23.78C234.757,25 233.807,25.98 232.56,26.72C231.32,27.46 229.86,27.83 228.18,27.83C226.873,27.83 225.77,27.657 224.87,27.31C223.97,26.963 223.05,26.493 222.11,25.9L222.11,22.94C222.53,23.853 223.297,24.657 224.41,25.35C225.517,26.037 226.75,26.38 228.11,26.38C229.91,26.38 231.297,25.833 232.27,24.74C233.243,23.64 233.73,22.277 233.73,20.65C233.73,18.723 233.137,17.243 231.95,16.21C230.77,15.17 229.28,14.65 227.48,14.65L226.77,14.65L226.77,14.06C228.403,13.493 229.723,12.687 230.73,11.64C231.743,10.593 232.25,9.38 232.25,8C232.25,6.74 231.887,5.71 231.16,4.91C230.433,4.103 229.427,3.7 228.14,3.7C227.353,3.7 226.613,3.9 225.92,4.3C225.233,4.693 224.673,5.267 224.24,6.02C223.807,6.767 223.59,7.66 223.59,8.7C223.15,8.107 222.93,7.353 222.93,6.44C222.93,4.933 223.483,3.73 224.59,2.83C225.703,1.93 227.037,1.48 228.59,1.48C230.29,1.48 231.72,1.973 232.88,2.96C234.04,3.947 234.62,5.28 234.62,6.96C234.62,8.047 234.257,9.143 233.53,10.25C232.803,11.363 231.81,12.263 230.55,12.95ZM261.52,25.31C259.2,26.69 256.103,27.38 252.23,27.38L244.94,27.38C244.94,27.453 245.09,27.387 245.39,27.18C245.683,26.967 245.947,26.577 246.18,26.01C246.413,25.443 246.53,24.617 246.53,23.53L246.53,5.33C246.53,4.37 246.413,3.637 246.18,3.13C245.947,2.623 245.683,2.283 245.39,2.11C245.09,1.937 244.94,1.877 244.94,1.93L252.19,1.93C255.963,1.93 258.95,2.547 261.15,3.78C263.097,4.867 264.6,6.333 265.66,8.18C266.72,10.027 267.25,12.11 267.25,14.43C267.25,16.95 266.75,19.127 265.75,20.96C264.757,22.8 263.347,24.25 261.52,25.31ZM260.07,5.44C258.99,4.727 257.833,4.21 256.6,3.89C255.367,3.57 253.897,3.41 252.19,3.41L249.2,3.41L249.2,25.9L252.19,25.9C254.217,25.9 255.877,25.727 257.17,25.38C258.463,25.04 259.58,24.51 260.52,23.79C261.727,22.857 262.657,21.63 263.31,20.11C263.963,18.597 264.29,16.827 264.29,14.8C264.29,12.653 263.913,10.773 263.16,9.16C262.413,7.547 261.383,6.307 260.07,5.44Z" style="fill:rgb(245,245,245);fill-rule:nonzero;"/>
        </g>
    </g>
</svg>
